<svg  xmlns="http://www.w3.org/2000/svg" viewBox="0 0 1440 320"><path fill="#005CB9" fill-opacity="1" d="M0,96L30,85.3C60,75,120,53,180,42.7C240,32,300,32,360,53.3C420,75,480,117,540,117.3C600,117,660,75,720,96C780,117,840,203,900,229.3C960,256,1020,224,1080,186.7C1140,149,1200,107,1260,90.7C1320,75,1380,85,1410,90.7L1440,96L1440,0L1410,0C1380,0,1320,0,1260,0C1200,0,1140,0,1080,0C1020,0,960,0,900,0C840,0,780,0,720,0C660,0,600,0,540,0C480,0,420,0,360,0C300,0,240,0,180,0C120,0,60,0,30,0L0,0Z"></path></svg>

