<svg width="100%" height="100%" id="svg" viewBox="0 0 1440 390" xmlns="http://www.w3.org/2000/svg" class="transition duration-300 ease-in-out delay-150"><defs><linearGradient id="gradient" x1="100%" y1="53%" x2="0%" y2="47%"><stop offset="5%" stop-color="#5dc460"></stop><stop offset="95%" stop-color="#ff6961"></stop></linearGradient></defs><path d="M 0,400 C 0,400 0,133 0,133 C 116.17224880382773,153.29665071770336 232.34449760765546,173.5933014354067 330,180 C 427.65550239234454,186.4066985645933 506.7942583732058,178.92344497607658 604,170 C 701.2057416267942,161.07655502392342 816.4784688995214,150.71291866028707 917,155 C 1017.5215311004786,159.28708133971293 1103.2918660287082,178.22488038277513 1188,177 C 1272.7081339712918,175.77511961722487 1356.3540669856459,154.38755980861242 1440,133 C 1440,133 1440,400 1440,400 Z" stroke="none" stroke-width="0" fill="url(#gradient)" fill-opacity="0.53" class="transition-all duration-300 ease-in-out delay-150 path-0"></path><defs><linearGradient id="gradient" x1="100%" y1="53%" x2="0%" y2="47%"><stop offset="5%" stop-color="#5dc460"></stop><stop offset="95%" stop-color="#ff6961"></stop></linearGradient></defs><path d="M 0,400 C 0,400 0,266 0,266 C 74.10526315789477,242.87081339712918 148.21052631578954,219.74162679425837 255,228 C 361.78947368421046,236.25837320574163 501.26315789473676,275.9043062200957 616,278 C 730.7368421052632,280.0956937799043 820.7368421052631,244.64114832535884 916,237 C 1011.2631578947369,229.35885167464116 1111.7894736842106,249.5311004784689 1200,259 C 1288.2105263157894,268.4688995215311 1364.1052631578946,267.23444976076553 1440,266 C 1440,266 1440,400 1440,400 Z" stroke="none" stroke-width="0" fill="url(#gradient)" fill-opacity="1" class="transition-all duration-300 ease-in-out delay-150 path-1"></path></svg>