<svg width="100%" height="100%" id="svg" viewBox="0 0 1440 390" xmlns="http://www.w3.org/2000/svg" class="transition duration-300 ease-in-out delay-150"><defs><linearGradient id="gradient" x1="100%" y1="53%" x2="0%" y2="47%"><stop offset="5%" stop-color="#5dc460"></stop><stop offset="95%" stop-color="#ff6961"></stop></linearGradient></defs><path d="M 0,400 C 0,400 0,133 0,133 C 94.80382775119617,140.26315789473685 189.60765550239233,147.5263157894737 285,151 C 380.39234449760767,154.4736842105263 476.37320574162675,154.1578947368421 588,163 C 699.6267942583733,171.8421052631579 826.8995215311005,189.8421052631579 909,179 C 991.1004784688995,168.1578947368421 1028.0287081339713,128.4736842105263 1109,116 C 1189.9712918660287,103.52631578947368 1314.9856459330144,118.26315789473685 1440,133 C 1440,133 1440,400 1440,400 Z" stroke="none" stroke-width="0" fill="url(#gradient)" fill-opacity="0.53" class="transition-all duration-300 ease-in-out delay-150 path-0" transform="rotate(-180 720 200)"></path><defs><linearGradient id="gradient" x1="100%" y1="53%" x2="0%" y2="47%"><stop offset="5%" stop-color="#5dc460"></stop><stop offset="95%" stop-color="#ff6961"></stop></linearGradient></defs><path d="M 0,400 C 0,400 0,266 0,266 C 118.1531100478469,279.85645933014354 236.3062200956938,293.7129186602871 315,280 C 393.6937799043062,266.2870813397129 432.92822966507174,225.00478468899522 534,228 C 635.0717703349283,230.99521531100478 797.9808612440193,278.26794258373207 900,293 C 1002.0191387559807,307.73205741626793 1043.1483253588517,289.92344497607655 1123,280 C 1202.8516746411483,270.07655502392345 1321.4258373205741,268.0382775119617 1440,266 C 1440,266 1440,400 1440,400 Z" stroke="none" stroke-width="0" fill="url(#gradient)" fill-opacity="1" class="transition-all duration-300 ease-in-out delay-150 path-1" transform="rotate(-180 720 200)"></path></svg>
